<svg width="32" height="41" viewBox="0 0 32 41" fill="none" xmlns="http://www.w3.org/2000/svg">
<path d="M16 22.5C14.0667 22.5 12.4417 21.8417 11.125 20.525C9.80833 19.2083 9.15 17.5833 9.15 15.65C9.15 13.7167 9.80833 12.0917 11.125 10.775C12.4417 9.45835 14.0667 8.80001 16 8.80001C17.9333 8.80001 19.5583 9.45835 20.875 10.775C22.1917 12.0917 22.85 13.7167 22.85 15.65C22.85 17.5833 22.1917 19.2083 20.875 20.525C19.5583 21.8417 17.9333 22.5 16 22.5ZM16 19.5C17.1333 19.5 18.0583 19.1417 18.775 18.425C19.4917 17.7083 19.85 16.7833 19.85 15.65C19.85 14.5167 19.4917 13.5917 18.775 12.875C18.0583 12.1583 17.1333 11.8 16 11.8C14.8667 11.8 13.9417 12.1583 13.225 12.875C12.5083 13.5917 12.15 14.5167 12.15 15.65C12.15 16.7833 12.5083 17.7083 13.225 18.425C13.9417 19.1417 14.8667 19.5 16 19.5ZM16 40.95C11.3333 39.7833 7.5 37.075 4.5 32.825C1.5 28.575 0 23.9167 0 18.85V6.95001L16 0.950012L32 6.95001V18.85C32 23.9167 30.5 28.575 27.5 32.825C24.5 37.075 20.6667 39.7833 16 40.95ZM16 4.15001L3 9.05001V18.85C3 20.95 3.29167 22.9583 3.875 24.875C4.45833 26.7917 5.28333 28.5667 6.35 30.2C7.88333 29.3667 9.44167 28.7417 11.025 28.325C12.6083 27.9083 14.2667 27.7 16 27.7C17.7333 27.7 19.3917 27.9083 20.975 28.325C22.5583 28.7417 24.1167 29.3667 25.65 30.2C26.7167 28.5667 27.5417 26.7917 28.125 24.875C28.7083 22.9583 29 20.95 29 18.85V9.05001L16 4.15001ZM16 30.7C14.7 30.7 13.4 30.8667 12.1 31.2C10.8 31.5333 9.51667 32.0333 8.25 32.7C9.31667 33.8667 10.5 34.8917 11.8 35.775C13.1 36.6583 14.5 37.35 16 37.85C17.5 37.35 18.9 36.6583 20.2 35.775C21.5 34.8917 22.6833 33.8667 23.75 32.7C22.4833 32.0333 21.2 31.5333 19.9 31.2C18.6 30.8667 17.3 30.7 16 30.7Z" fill="white"/>
</svg>
