<svg width="48" height="48" viewBox="0 0 48 48" fill="none" xmlns="http://www.w3.org/2000/svg">
<path d="M0 24C0 14.0768 0 9.11523 2.49662 5.6185C3.35764 4.41256 4.41256 3.35764 5.6185 2.49662C9.11523 0 14.0768 0 24 0C33.9232 0 38.8848 0 42.3815 2.49662C43.5874 3.35764 44.6424 4.41256 45.5034 5.6185C48 9.11523 48 14.0768 48 24C48 33.9232 48 38.8848 45.5034 42.3815C44.6424 43.5874 43.5874 44.6424 42.3815 45.5034C38.8848 48 33.9232 48 24 48C14.0768 48 9.11523 48 5.6185 45.5034C4.41256 44.6424 3.35764 43.5874 2.49662 42.3815C0 38.8848 0 33.9232 0 24Z" fill="#6C963D"/>
<path d="M22.9412 33.8824V25.0588H14.1177V22.9412H22.9412V14.1176H25.0589V22.9412H33.8824V25.0588H25.0589V33.8824H22.9412Z" fill="white"/>
</svg>
