<svg width="22" height="22" viewBox="0 0 22 22" fill="none" xmlns="http://www.w3.org/2000/svg">
<path d="M11 20.1667C9.73192 20.1667 8.54026 19.9261 7.42498 19.4448C6.3097 18.9636 5.33956 18.3105 4.51456 17.4855C3.68956 16.6605 3.03644 15.6903 2.55519 14.575C2.07394 13.4598 1.83331 12.2681 1.83331 11C1.83331 9.73198 2.07394 8.54032 2.55519 7.42504C3.03644 6.30976 3.68956 5.33962 4.51456 4.51462C5.33956 3.68962 6.3097 3.0365 7.42498 2.55525C8.54026 2.074 9.73192 1.83337 11 1.83337C12.268 1.83337 13.4597 2.074 14.575 2.55525C15.6903 3.0365 16.6604 3.68962 17.4854 4.51462C18.3104 5.33962 18.9635 6.30976 19.4448 7.42504C19.926 8.54032 20.1666 9.73198 20.1666 11C20.1666 12.2681 19.926 13.4598 19.4448 14.575C18.9635 15.6903 18.3104 16.6605 17.4854 17.4855C16.6604 18.3105 15.6903 18.9636 14.575 19.4448C13.4597 19.9261 12.268 20.1667 11 20.1667ZM11 18.7917C13.1752 18.7917 15.0176 18.0369 16.5272 16.5273C18.0368 15.0176 18.7916 13.1752 18.7916 11C18.7916 10.0733 18.6312 9.1808 18.3104 8.32266C17.9896 7.46453 17.5389 6.68407 16.9583 5.98129L5.98123 16.9584C6.66873 17.5542 7.44402 18.0087 8.30711 18.3219C9.17021 18.6351 10.0678 18.7917 11 18.7917ZM5.06456 16.0188L16.0187 5.06462C15.316 4.46879 14.5355 4.01046 13.6774 3.68962C12.8192 3.36879 11.9268 3.20837 11 3.20837C8.82481 3.20837 6.9824 3.96319 5.47275 5.47282C3.96313 6.98246 3.20831 8.82487 3.20831 11C3.20831 11.9322 3.37637 12.8298 3.71248 13.6929C4.04859 14.556 4.49929 15.3313 5.06456 16.0188Z" fill="white"/>
</svg>
