<svg width="40" height="40" viewBox="0 0 40 40" fill="none" xmlns="http://www.w3.org/2000/svg">
<path d="M9.99992 23.375H23.0416V20.875H9.99992V23.375ZM9.99992 17.9583H29.9999V15.4583H9.99992V17.9583ZM9.99992 12.5417H29.9999V10.0417H9.99992V12.5417ZM3.33325 36.6667V5.83334C3.33325 5.19445 3.58325 4.61806 4.08325 4.10417C4.58325 3.59028 5.16659 3.33334 5.83325 3.33334H34.1666C34.8055 3.33334 35.3819 3.59028 35.8957 4.10417C36.4096 4.61806 36.6666 5.19445 36.6666 5.83334V27.5C36.6666 28.1389 36.4096 28.7153 35.8957 29.2292C35.3819 29.7431 34.8055 30 34.1666 30H9.99992L3.33325 36.6667ZM5.83325 30.625L8.95825 27.5H34.1666V5.83334H5.83325V30.625Z" fill="white"/>
</svg>
