<svg width="22" height="22" viewBox="0 0 22 22" fill="none" xmlns="http://www.w3.org/2000/svg">
<path d="M16.7292 12.8333V9.85413H13.75V8.47913H16.7292V5.49997H18.1042V8.47913H21.0833V9.85413H18.1042V12.8333H16.7292ZM8.24999 10.9771C7.24166 10.9771 6.41666 10.6562 5.77499 10.0146C5.13332 9.37288 4.81249 8.54788 4.81249 7.53955C4.81249 6.53122 5.13332 5.70622 5.77499 5.06455C6.41666 4.42288 7.24166 4.10205 8.24999 4.10205C9.25832 4.10205 10.0833 4.42288 10.725 5.06455C11.3667 5.70622 11.6875 6.53122 11.6875 7.53955C11.6875 8.54788 11.3667 9.37288 10.725 10.0146C10.0833 10.6562 9.25832 10.9771 8.24999 10.9771ZM0.916656 18.3333V16.1791C0.916656 15.6444 1.05034 15.1593 1.3177 14.7239C1.58506 14.2885 1.97082 13.9639 2.47499 13.75C3.62082 13.2458 4.63938 12.8906 5.53065 12.6843C6.42194 12.4781 7.32715 12.375 8.24628 12.375C9.16542 12.375 10.068 12.4781 10.9542 12.6843C11.8403 12.8906 12.8562 13.2458 14.0021 13.75C14.5062 13.9791 14.8958 14.3076 15.1708 14.7354C15.4458 15.1632 15.5833 15.6444 15.5833 16.1791V18.3333H0.916656ZM2.29166 16.9583H14.2083V16.1791C14.2083 15.9347 14.1396 15.7017 14.0021 15.4802C13.8646 15.2586 13.6812 15.0944 13.4521 14.9875C12.3674 14.4833 11.4507 14.151 10.7021 13.9906C9.95346 13.8302 9.1361 13.75 8.24999 13.75C7.36388 13.75 6.5427 13.8302 5.78645 13.9906C5.0302 14.151 4.10971 14.4833 3.02499 14.9875C2.79582 15.0944 2.61631 15.2586 2.48645 15.4802C2.35659 15.7017 2.29166 15.9347 2.29166 16.1791V16.9583ZM8.24999 9.60205C8.84582 9.60205 9.33853 9.40726 9.72811 9.01768C10.1177 8.62809 10.3125 8.13538 10.3125 7.53955C10.3125 6.94372 10.1177 6.45101 9.72811 6.06143C9.33853 5.67184 8.84582 5.47705 8.24999 5.47705C7.65416 5.47705 7.16145 5.67184 6.77186 6.06143C6.38228 6.45101 6.18749 6.94372 6.18749 7.53955C6.18749 8.13538 6.38228 8.62809 6.77186 9.01768C7.16145 9.40726 7.65416 9.60205 8.24999 9.60205Z" fill="#ACFE45"/>
</svg>
