<svg width="18" height="18" viewBox="0 0 18 18" fill="none" xmlns="http://www.w3.org/2000/svg">
<path d="M0.712494 15V13.2375C0.712494 12.8 0.824994 12.4031 1.04999 12.0469C1.27499 11.6906 1.58749 11.425 1.98749 11.25C2.89999 10.85 3.72187 10.5625 4.45312 10.3875C5.18437 10.2125 5.93749 10.125 6.71249 10.125C7.48749 10.125 8.23749 10.2125 8.96249 10.3875C9.68749 10.5625 10.5062 10.85 11.4187 11.25C11.8187 11.425 12.1344 11.6906 12.3656 12.0469C12.5969 12.4031 12.7125 12.8 12.7125 13.2375V15H0.712494ZM13.8375 15V13.2375C13.8375 12.45 13.6375 11.8031 13.2375 11.2969C12.8375 10.7906 12.3125 10.3812 11.6625 10.0687C12.525 10.1687 13.3375 10.3156 14.1 10.5094C14.8625 10.7031 15.4812 10.925 15.9562 11.175C16.3687 11.4125 16.6937 11.7062 16.9312 12.0562C17.1687 12.4062 17.2875 12.8 17.2875 13.2375V15H13.8375ZM6.71249 8.98125C5.88749 8.98125 5.21249 8.71875 4.68749 8.19375C4.16249 7.66875 3.89999 6.99375 3.89999 6.16875C3.89999 5.34375 4.16249 4.66875 4.68749 4.14375C5.21249 3.61875 5.88749 3.35625 6.71249 3.35625C7.53749 3.35625 8.21249 3.61875 8.73749 4.14375C9.26249 4.66875 9.52499 5.34375 9.52499 6.16875C9.52499 6.99375 9.26249 7.66875 8.73749 8.19375C8.21249 8.71875 7.53749 8.98125 6.71249 8.98125ZM13.4625 6.16875C13.4625 6.99375 13.2 7.66875 12.675 8.19375C12.15 8.71875 11.475 8.98125 10.65 8.98125C10.5125 8.98125 10.3594 8.97187 10.1906 8.95312C10.0219 8.93437 9.86874 8.9 9.73124 8.85C10.0312 8.5375 10.2594 8.15312 10.4156 7.69687C10.5719 7.24062 10.65 6.73125 10.65 6.16875C10.65 5.60625 10.5719 5.10937 10.4156 4.67812C10.2594 4.24687 10.0312 3.85 9.73124 3.4875C9.86874 3.45 10.0219 3.41875 10.1906 3.39375C10.3594 3.36875 10.5125 3.35625 10.65 3.35625C11.475 3.35625 12.15 3.61875 12.675 4.14375C13.2 4.66875 13.4625 5.34375 13.4625 6.16875ZM1.83749 13.875H11.5875V13.2375C11.5875 13.0375 11.5281 12.8437 11.4094 12.6562C11.2906 12.4687 11.1437 12.3375 10.9687 12.2625C10.0687 11.8625 9.31249 11.5937 8.69999 11.4562C8.08749 11.3187 7.42499 11.25 6.71249 11.25C5.99999 11.25 5.33437 11.3187 4.71562 11.4562C4.09687 11.5937 3.33749 11.8625 2.43749 12.2625C2.26249 12.3375 2.11874 12.4687 2.00624 12.6562C1.89374 12.8437 1.83749 13.0375 1.83749 13.2375V13.875ZM6.71249 7.85625C7.19999 7.85625 7.60312 7.69687 7.92187 7.37812C8.24062 7.05937 8.39999 6.65625 8.39999 6.16875C8.39999 5.68125 8.24062 5.27812 7.92187 4.95937C7.60312 4.64062 7.19999 4.48125 6.71249 4.48125C6.22499 4.48125 5.82187 4.64062 5.50312 4.95937C5.18437 5.27812 5.02499 5.68125 5.02499 6.16875C5.02499 6.65625 5.18437 7.05937 5.50312 7.37812C5.82187 7.69687 6.22499 7.85625 6.71249 7.85625Z" fill="#ACFE45"/>
</svg>
