<svg width="25" height="26" viewBox="0 0 25 26" fill="none" xmlns="http://www.w3.org/2000/svg">
<path d="M12.7551 10.6364V15.6709H19.6197C19.3183 17.29 18.4137 18.661 17.057 19.5828L21.1967 22.8565C23.6085 20.5875 25 17.2547 25 13.2956C25 12.3738 24.9189 11.4873 24.7681 10.6365L12.7551 10.6364Z" fill="#4285F4"/>
<path d="M5.60679 15.4745L4.67315 16.2029L1.36835 18.8265C3.46715 23.0692 7.7688 26.0002 12.7549 26.0002C16.1987 26.0002 19.086 24.842 21.1964 22.8566L17.0568 19.5829C15.9204 20.3629 14.471 20.8357 12.7549 20.8357C9.43855 20.8357 6.6209 18.5548 5.61201 15.482L5.60679 15.4745Z" fill="#34A853"/>
<path d="M1.36837 7.17371C0.498742 8.92273 0.000183105 10.8964 0.000183105 13C0.000183105 15.1036 0.498742 17.0773 1.36837 18.8263C1.36837 18.8381 5.61243 15.47 5.61243 15.47C5.35733 14.69 5.20655 13.8627 5.20655 12.9999C5.20655 12.137 5.35733 11.3098 5.61243 10.5298L1.36837 7.17371Z" fill="#FBBC05"/>
<path d="M12.7551 5.17639C14.6337 5.17639 16.3034 5.83819 17.6369 7.11458L21.2895 3.39188C19.0747 1.28827 16.1991 0 12.7551 0C7.76906 0 3.46715 2.9191 1.36835 7.17369L5.61228 10.5301C6.62104 7.45729 9.43881 5.17639 12.7551 5.17639Z" fill="#EA4335"/>
</svg>
