<svg width="18" height="18" viewBox="0 0 18 18" fill="none" xmlns="http://www.w3.org/2000/svg">
<path d="M2.625 15.75C2.31563 15.75 2.05078 15.6398 1.83047 15.4195C1.61016 15.1992 1.5 14.9344 1.5 14.625V2.25L2.75625 3.50625L3.99375 2.25L5.25 3.50625L6.50625 2.25L7.74375 3.50625L9 2.25L10.2563 3.50625L11.4938 2.25L12.75 3.50625L14.0063 2.25L15.2438 3.50625L16.5 2.25V14.625C16.5 14.9344 16.3898 15.1992 16.1695 15.4195C15.9492 15.6398 15.6844 15.75 15.375 15.75H2.625ZM2.625 14.625H8.4375V9.375H2.625V14.625ZM9.5625 14.625H15.375V12.5625H9.5625V14.625ZM9.5625 11.4375H15.375V9.375H9.5625V11.4375ZM2.625 8.25H15.375V6H2.625V8.25Z" fill="#ACFE45"/>
</svg>
