<svg width="27" height="27" viewBox="0 0 27 27" fill="none" xmlns="http://www.w3.org/2000/svg">
<path d="M4.5 21.375V19.6875H6.8625V11.0812C6.8625 9.50625 7.32656 8.10469 8.25469 6.87656C9.18281 5.64844 10.4062 4.875 11.925 4.55625V3.74062C11.925 3.30937 12.0797 2.95312 12.3891 2.67187C12.6984 2.39062 13.0687 2.25 13.5 2.25C13.9312 2.25 14.3016 2.39062 14.6109 2.67187C14.9203 2.95312 15.075 3.30937 15.075 3.74062V4.55625C16.5937 4.875 17.8219 5.64844 18.7594 6.87656C19.6969 8.10469 20.1656 9.50625 20.1656 11.0812V19.6875H22.5V21.375H4.5ZM13.5 24.75C12.9 24.75 12.375 24.5297 11.925 24.0891C11.475 23.6484 11.25 23.1187 11.25 22.5H15.75C15.75 23.1187 15.5297 23.6484 15.0891 24.0891C14.6484 24.5297 14.1187 24.75 13.5 24.75ZM8.55 19.6875H18.4781V11.0812C18.4781 9.69375 18 8.5125 17.0437 7.5375C16.0875 6.5625 14.9156 6.075 13.5281 6.075C12.1406 6.075 10.9641 6.5625 9.99844 7.5375C9.03281 8.5125 8.55 9.69375 8.55 11.0812V19.6875Z" fill="white"/>
</svg>
