<svg width="20" height="20" viewBox="0 0 20 20" fill="none" xmlns="http://www.w3.org/2000/svg">
<path d="M9.99992 18.3333C9.54158 18.3333 9.14922 18.1701 8.82283 17.8437C8.49645 17.5173 8.33325 17.125 8.33325 16.6666H11.6666C11.6666 17.125 11.5034 17.5173 11.177 17.8437C10.8506 18.1701 10.4583 18.3333 9.99992 18.3333ZM3.33325 15.8333V14.5833H4.99992V8.24996C4.99992 7.08329 5.34367 6.03815 6.03117 5.11454C6.71867 4.19093 7.62492 3.61107 8.74992 3.37496V2.91663C8.74992 2.5694 8.87145 2.27426 9.1145 2.03121C9.35756 1.78815 9.6527 1.66663 9.99992 1.66663C10.3471 1.66663 10.6423 1.78815 10.8853 2.03121C11.1284 2.27426 11.2499 2.5694 11.2499 2.91663V3.37496C11.5694 3.4444 11.8736 3.54193 12.1628 3.66752C12.4519 3.79313 12.724 3.95256 12.9791 4.14579C12.8211 4.31138 12.6844 4.48472 12.5689 4.66581C12.4535 4.84691 12.3402 5.03468 12.2291 5.22913C11.9096 4.99301 11.5612 4.81246 11.1838 4.68746C10.8063 4.56246 10.4117 4.49996 9.99992 4.49996C8.95825 4.49996 8.07284 4.86454 7.34367 5.59371C6.6145 6.32288 6.24992 7.20829 6.24992 8.24996V14.5833H13.7499V11.5416C13.9444 11.6805 14.1423 11.8055 14.3437 11.9166C14.5451 12.0277 14.7638 12.125 14.9999 12.2083V14.5833H16.6666V15.8333H3.33325ZM16.0416 10.8333V8.12496H13.3333V6.87496H16.0416V4.16663H17.2916V6.87496H19.9999V8.12496H17.2916V10.8333H16.0416Z" fill="#ACFE45"/>
</svg>
