<svg width="22" height="22" viewBox="0 0 22 22" fill="none" xmlns="http://www.w3.org/2000/svg">
<path d="M11 10.9771C9.99163 10.9771 9.16663 10.6562 8.52496 10.0146C7.88329 9.37291 7.56246 8.54791 7.56246 7.53958C7.56246 6.53125 7.88329 5.70625 8.52496 5.06458C9.16663 4.42291 9.99163 4.10208 11 4.10208C12.0083 4.10208 12.8333 4.42291 13.475 5.06458C14.1166 5.70625 14.4375 6.53125 14.4375 7.53958C14.4375 8.54791 14.1166 9.37291 13.475 10.0146C12.8333 10.6562 12.0083 10.9771 11 10.9771ZM3.66663 18.3333V16.1792C3.66663 15.5986 3.81176 15.1021 4.10204 14.6896C4.39232 14.2771 4.76663 13.9639 5.22496 13.75C6.24857 13.2917 7.23017 12.9479 8.16975 12.7187C9.10933 12.4896 10.0527 12.375 11 12.375C11.9472 12.375 12.8868 12.4934 13.8187 12.7302C14.7507 12.967 15.7278 13.3084 16.7502 13.7544C17.2284 13.9703 17.6118 14.2832 17.9004 14.6932C18.189 15.1033 18.3333 15.5986 18.3333 16.1792V18.3333H3.66663ZM5.04163 16.9583H16.9583V16.1792C16.9583 15.9347 16.8857 15.7017 16.7406 15.4802C16.5954 15.2587 16.4159 15.0944 16.202 14.9875C15.2243 14.5139 14.3305 14.1892 13.5208 14.0135C12.7111 13.8378 11.8708 13.75 11 13.75C10.1291 13.75 9.28121 13.8378 8.45621 14.0135C7.63121 14.1892 6.73746 14.5139 5.77496 14.9875C5.56107 15.0944 5.38538 15.2587 5.24788 15.4802C5.11038 15.7017 5.04163 15.9347 5.04163 16.1792V16.9583ZM11 9.60208C11.5958 9.60208 12.0885 9.40729 12.4781 9.01771C12.8677 8.62812 13.0625 8.13541 13.0625 7.53958C13.0625 6.94375 12.8677 6.45104 12.4781 6.06146C12.0885 5.67187 11.5958 5.47708 11 5.47708C10.4041 5.47708 9.91142 5.67187 9.52183 6.06146C9.13225 6.45104 8.93746 6.94375 8.93746 7.53958C8.93746 8.13541 9.13225 8.62812 9.52183 9.01771C9.91142 9.40729 10.4041 9.60208 11 9.60208Z" fill="#ACFE45"/>
</svg>
