<svg width="16" height="16" viewBox="0 0 16 16" fill="none" xmlns="http://www.w3.org/2000/svg">
<path d="M8.00004 14.6667C7.07782 14.6667 6.21115 14.4917 5.40004 14.1417C4.58893 13.7917 3.88337 13.3167 3.28337 12.7167C2.68337 12.1167 2.20837 11.4111 1.85837 10.6C1.50837 9.78888 1.33337 8.92222 1.33337 7.99999C1.33337 7.07777 1.50837 6.21111 1.85837 5.39999C2.20837 4.58888 2.68337 3.88333 3.28337 3.28333C3.88337 2.68333 4.58893 2.20833 5.40004 1.85833C6.21115 1.50833 7.07782 1.33333 8.00004 1.33333C8.92226 1.33333 9.78893 1.50833 10.6 1.85833C11.4112 2.20833 12.1167 2.68333 12.7167 3.28333C13.3167 3.88333 13.7917 4.58888 14.1417 5.39999C14.4917 6.21111 14.6667 7.07777 14.6667 7.99999C14.6667 8.92222 14.4917 9.78888 14.1417 10.6C13.7917 11.4111 13.3167 12.1167 12.7167 12.7167C12.1167 13.3167 11.4112 13.7917 10.6 14.1417C9.78893 14.4917 8.92226 14.6667 8.00004 14.6667ZM7.28337 13.65V12.2833C6.89448 12.2833 6.56671 12.1389 6.30004 11.85C6.03337 11.5611 5.90004 11.2222 5.90004 10.8333V10.1L2.48337 6.68333C2.42782 6.90555 2.38893 7.12499 2.36671 7.34166C2.34449 7.55833 2.33337 7.77777 2.33337 7.99999C2.33337 9.44444 2.80282 10.7056 3.74171 11.7833C4.6806 12.8611 5.86115 13.4833 7.28337 13.65ZM12.1834 11.85C12.4278 11.5833 12.6417 11.3 12.825 11C13.0084 10.7 13.1639 10.3861 13.2917 10.0583C13.4195 9.73055 13.5139 9.39444 13.575 9.04999C13.6362 8.70555 13.6667 8.35555 13.6667 7.99999C13.6667 6.82222 13.3445 5.75277 12.7 4.79166C12.0556 3.83055 11.1945 3.12777 10.1167 2.68333V2.98333C10.1167 3.37222 9.98337 3.71111 9.71671 3.99999C9.45004 4.28888 9.12226 4.43333 8.73337 4.43333H7.28337V5.88333C7.28337 6.07222 7.20837 6.22777 7.05837 6.34999C6.90837 6.47222 6.73893 6.53333 6.55004 6.53333H5.16671V7.99999H9.46671C9.6556 7.99999 9.81115 8.07222 9.93337 8.21666C10.0556 8.36111 10.1167 8.52777 10.1167 8.71666V10.8333H10.8334C11.1556 10.8333 11.4389 10.9278 11.6834 11.1167C11.9278 11.3055 12.0945 11.55 12.1834 11.85Z" fill="#ACFE45"/>
</svg>
