<svg width="26" height="26" viewBox="0 0 26 26" fill="none" xmlns="http://www.w3.org/2000/svg">
<path d="M21.5583 22.7229L14.4354 15.6C13.8938 16.0695 13.2622 16.4351 12.5407 16.6969C11.8192 16.9587 11.0515 17.0896 10.2375 17.0896C8.28457 17.0896 6.63176 16.4125 5.27906 15.0583C3.92635 13.7042 3.25 12.0702 3.25 10.1563C3.25 8.24238 3.92708 6.60835 5.28125 5.25418C6.63542 3.90001 8.27396 3.22293 10.1969 3.22293C12.1198 3.22293 13.7538 3.90001 15.099 5.25418C16.4441 6.60835 17.1167 8.24373 17.1167 10.1603C17.1167 10.934 16.9903 11.682 16.7375 12.4042C16.4847 13.1264 16.1056 13.8035 15.6 14.4354L22.75 21.5313L21.5583 22.7229ZM10.2104 15.4646C11.6774 15.4646 12.9244 14.9455 13.9513 13.9073C14.9782 12.8691 15.4917 11.6188 15.4917 10.1563C15.4917 8.69376 14.9782 7.44342 13.9513 6.40522C12.9244 5.36703 11.6774 4.84793 10.2104 4.84793C8.72836 4.84793 7.46861 5.36703 6.43115 6.40522C5.39372 7.44342 4.875 8.69376 4.875 10.1563C4.875 11.6188 5.39372 12.8691 6.43115 13.9073C7.46861 14.9455 8.72836 15.4646 10.2104 15.4646Z" fill="#ACFE45"/>
</svg>
