<svg width="29" height="27" viewBox="0 0 29 27" fill="none" xmlns="http://www.w3.org/2000/svg">
<path d="M5.51268 19.6639C8.55725 19.6639 11.0254 17.1958 11.0254 14.1512C11.0254 11.1067 8.55725 8.63855 5.51268 8.63855C2.46811 8.63855 0 11.1067 0 14.1512C0 17.1958 2.46811 19.6639 5.51268 19.6639Z" fill="url(#paint0_linear_235_67)"/>
<path fill-rule="evenodd" clip-rule="evenodd" d="M5.51268 8.63855C8.55518 8.63855 11.0254 11.1087 11.0254 14.1512C11.0254 17.1937 8.55518 19.6639 5.51268 19.6639C2.47017 19.6639 0 17.1937 0 14.1512C0 11.1087 2.47017 8.63855 5.51268 8.63855ZM5.51268 8.98299C8.36504 8.98299 10.6809 11.2989 10.6809 14.1512C10.6809 17.0036 8.36504 19.3192 5.51268 19.3192C2.66031 19.3192 0.344713 17.0036 0.344713 14.1512C0.344713 11.2989 2.66031 8.98299 5.51268 8.98299Z" fill="url(#paint1_linear_235_67)"/>
<path d="M5.51273 18.2857C7.79608 18.2857 9.6471 16.4347 9.6471 14.1513C9.6471 11.868 7.79608 10.017 5.51273 10.017C3.22938 10.017 1.37836 11.868 1.37836 14.1513C1.37836 16.4347 3.22938 18.2857 5.51273 18.2857Z" fill="#4DCAED"/>
<path d="M5.51271 17.9413C7.60583 17.9413 9.30264 16.2445 9.30264 14.1514C9.30264 12.0583 7.60583 10.3615 5.51271 10.3615C3.41959 10.3615 1.72278 12.0583 1.72278 14.1514C1.72278 16.2445 3.41959 17.9413 5.51271 17.9413Z" fill="url(#paint2_linear_235_67)"/>
<path d="M5.51268 16.9939C7.08256 16.9939 8.3552 15.7212 8.3552 14.1514C8.3552 12.5815 7.08256 11.3088 5.51268 11.3088C3.9428 11.3088 2.67017 12.5815 2.67017 14.1514C2.67017 15.7212 3.9428 16.9939 5.51268 16.9939Z" fill="#B7BDD2"/>
<path fill-rule="evenodd" clip-rule="evenodd" d="M12.1117 4.06616C12.2657 4.16082 12.4039 4.26287 12.521 4.37148C13.9819 5.72763 14.7044 7.05888 15.1096 8.90993C15.4675 10.5454 15.6393 11.3374 14.7797 11.9338C13.6194 12.739 16.0193 16.1793 16.4874 17.1748C15.8688 17.9682 15.0623 17.951 14.636 18.171C14.3997 18.2927 14.4973 18.7438 14.5356 19.0913C14.5731 19.4313 14.8864 19.6453 14.7146 19.9087C14.5605 20.1448 13.9786 20.1618 13.7258 20.3243C13.9691 20.5922 14.5099 20.8608 14.4388 21.2091C14.3841 21.478 13.7773 21.4307 13.5436 22.043C13.4183 22.371 13.4829 22.9794 13.2241 23.2867C12.8323 23.7512 12.4285 23.9641 11.8485 24.0174C11.5383 24.0505 11.2245 24.0179 10.9276 23.9214C9.96326 23.6043 9.06674 23.1482 8.2583 22.58C8.58961 22.6355 8.94992 22.6875 9.32965 22.7297C10.4305 22.8519 10.9837 22.7463 11.5123 22.1193C11.7399 21.8493 11.683 21.3144 11.7933 21.0258C11.9987 20.4876 12.5322 20.5292 12.5803 20.2926C12.643 19.9864 12.1675 19.7503 11.9536 19.5145C12.1757 19.372 12.6876 19.3569 12.823 19.1493C12.974 18.9176 12.6985 18.7296 12.6657 18.4303C12.6321 18.125 12.5459 17.7283 12.7538 17.6213C13.1286 17.4279 13.8377 17.4432 14.3816 16.7456C13.9701 15.8701 11.86 12.8451 12.8802 12.1371C13.6361 11.6129 13.4848 10.9164 13.1702 9.47843C12.814 7.85089 12.1785 6.68024 10.894 5.48769C10.6169 5.23053 10.2059 5.01549 9.74795 4.85763C10.4937 4.50198 11.2866 4.23414 12.1117 4.06616Z" fill="url(#paint3_linear_235_67)"/>
<path fill-rule="evenodd" clip-rule="evenodd" d="M14.4393 3.8645C14.6574 3.87052 14.8765 3.88338 15.0965 3.90335C20.7533 4.41714 24.9287 9.42697 24.415 15.0836C23.9411 20.3013 19.642 24.2589 14.5381 24.4384C14.6111 24.381 14.6809 24.3189 14.7468 24.251C15.1832 23.8021 15.2664 23.262 15.3419 22.7107C15.3813 22.4314 15.5917 22.4103 15.7711 22.3069C16.5497 21.8577 16.2193 20.8206 16.2193 20.8206C16.4466 20.6468 16.6094 20.3924 16.6586 20.1134C16.7281 19.7197 16.4614 19.3821 16.4053 18.9298C16.5136 18.8992 16.622 18.868 16.7289 18.833C17.6044 18.546 18.8038 17.8497 18.3502 16.9086C17.8465 15.8638 17.1472 14.8767 16.6887 13.7912C16.5095 13.3671 16.3054 12.9389 16.3746 12.5474C17.228 11.9333 17.4052 10.9358 17.2824 10.0332C16.9582 7.6454 16.0472 5.48383 14.4393 3.8645Z" fill="#D1D1E0"/>
<path fill-rule="evenodd" clip-rule="evenodd" d="M16.8111 5.38159C18.1962 5.90085 19.4662 6.69178 20.4891 7.7489C22.4381 9.76355 23.5976 12.692 23.0354 15.4218C22.5032 18.006 20.2599 20.1594 18.7735 20.8226C18.0619 21.1402 17.4849 21.0937 17.4888 21.0072C17.4926 20.9208 17.5829 20.7394 18.0285 20.2023C19.623 18.2796 20.5619 15.4716 19.1606 13.2788C18.8766 12.834 18.5284 12.4581 18.1352 12.1374C18.4507 11.5435 18.5048 10.8445 18.4162 10.1906C18.1787 8.44325 17.6559 6.80641 16.8111 5.38159Z" fill="url(#paint4_linear_235_67)"/>
<path fill-rule="evenodd" clip-rule="evenodd" d="M13.9212 0.0020752C8.91385 2.73406 5.51268 8.04867 5.51268 14.1512C5.51268 15.1175 5.59804 16.0641 5.76137 16.9828C5.67957 16.9899 5.59667 16.9937 5.51268 16.9937C3.94396 16.9937 2.67017 15.7199 2.67017 14.1512C2.67017 9.43682 4.39537 5.12244 7.24883 1.80498C9.22847 0.69287 11.5014 0.0431125 13.9212 0.0020752Z" fill="url(#paint5_linear_235_67)"/>
<path fill-rule="evenodd" clip-rule="evenodd" d="M7.24854 1.80509C9.29493 0.655503 11.6543 0 14.1658 0C21.9768 0 28.3185 6.34163 28.3185 14.1529C28.3185 21.7167 21.4494 28.6946 11.2365 26.4614L11.2133 26.4417C17.3237 27.0912 21.8277 24.6024 24.2697 20.966L24.2845 20.9438C25.5903 19.0033 26.3528 16.6663 26.3528 14.1529V14.1513C26.3517 7.42556 20.8913 1.96569 14.1658 1.96569C9.76166 1.96569 5.90005 4.30673 3.75873 7.81131C4.54856 5.58928 5.74138 3.55766 7.24854 1.80509Z" fill="#94A2C1"/>
<path fill-rule="evenodd" clip-rule="evenodd" d="M14.1658 0C21.9769 0 28.3185 6.34163 28.3185 14.1529C28.3185 17.1845 27.2151 20.122 25.2347 22.4102C26.9569 20.1061 27.9771 17.2477 27.9771 14.1529C27.9771 6.53013 21.7884 0.34143 14.1658 0.34143C11.375 0.34143 8.77652 1.17093 6.60455 2.59602C6.8122 2.32654 7.02696 2.06281 7.24857 1.80509C8.11144 1.32058 9.02986 0.923613 9.99177 0.626503L9.99588 0.625409L10.0998 0.593673L10.1012 0.5934L10.2082 0.561664L10.3151 0.531023L10.3184 0.530202L10.4186 0.502297L10.4292 0.499287L10.5329 0.471382C10.569 0.46208 10.6054 0.452505 10.6418 0.442929L10.7444 0.417213L10.7594 0.413383L10.8522 0.390675L10.8648 0.387666L10.9704 0.36277L11.0757 0.338968L11.0908 0.335685L11.1799 0.316261L11.2005 0.311884L11.2957 0.291912L11.3039 0.289997L11.4114 0.268384L11.4196 0.266743L11.514 0.248412L11.5381 0.244035L11.6218 0.228441L11.6439 0.224611L11.7484 0.206007L11.853 0.188498L11.8768 0.184668L11.958 0.171536L11.9862 0.167159L12.0729 0.154027L12.0904 0.151291L12.1957 0.136244L12.2138 0.133782L12.3 0.122291L12.3304 0.118187L12.4083 0.108338L12.4368 0.104782L12.5413 0.0924708L12.6458 0.0809804L12.6753 0.0776974L12.7522 0.0700371L12.785 0.0667541L12.8674 0.0590939L12.8904 0.0569051L12.9952 0.0478769L13.0184 0.0459618L13.1008 0.0396695L13.1347 0.0372073L13.2105 0.0320093L13.2419 0.0298205L13.3473 0.0232545L13.4529 0.017783L13.4849 0.0161413L13.5606 0.0128583L13.5954 0.0114904L13.6772 0.00848108L13.7024 0.00738683L13.808 0.00437726L13.8331 0.00383013L13.9152 0.00218876L13.9502 0.00164163L14.0263 0.000820817L14.0591 0.000547124L14.1658 0Z" fill="#B7BDD2"/>
<defs>
<linearGradient id="paint0_linear_235_67" x1="5.51276" y1="19.6638" x2="5.51276" y2="8.63847" gradientUnits="userSpaceOnUse">
<stop stop-color="#4B69B6"/>
<stop offset="1" stop-color="#435EA5"/>
</linearGradient>
<linearGradient id="paint1_linear_235_67" x1="5.51276" y1="19.6638" x2="5.51276" y2="8.63847" gradientUnits="userSpaceOnUse">
<stop stop-color="#5773BB"/>
<stop offset="1" stop-color="#3A5290"/>
</linearGradient>
<linearGradient id="paint2_linear_235_67" x1="5.51279" y1="17.9413" x2="5.51279" y2="10.3613" gradientUnits="userSpaceOnUse">
<stop stop-color="#22B2E7"/>
<stop offset="1" stop-color="#177A9E"/>
</linearGradient>
<linearGradient id="paint3_linear_235_67" x1="12.7921" y1="23.6924" x2="12.7921" y2="3.86067" gradientUnits="userSpaceOnUse">
<stop stop-color="#4B69B6"/>
<stop offset="1" stop-color="#435EA5"/>
</linearGradient>
<linearGradient id="paint4_linear_235_67" x1="18.4496" y1="21.0711" x2="18.4496" y2="6.15802" gradientUnits="userSpaceOnUse">
<stop stop-color="#A7B1CD"/>
<stop offset="0.46" stop-color="#C8CBDC"/>
<stop offset="1" stop-color="#D1D2E0"/>
</linearGradient>
<linearGradient id="paint5_linear_235_67" x1="5.76137" y1="16.9828" x2="11.0906" y2="0.335572" gradientUnits="userSpaceOnUse">
<stop stop-color="#B7BDD2"/>
<stop offset="1" stop-color="#607BB6"/>
</linearGradient>
</defs>
</svg>
