<svg width="40" height="40" viewBox="0 0 40 40" fill="none" xmlns="http://www.w3.org/2000/svg">
<path d="M17.5 39.9C15.1 39.6 12.8583 38.8833 10.775 37.75C8.69167 36.6167 6.89167 35.175 5.375 33.425C3.85833 31.675 2.66667 29.6583 1.8 27.375C0.933333 25.0917 0.5 22.6333 0.5 20C0.5 17.0667 1.19167 14.2667 2.575 11.6C3.95833 8.93334 5.81667 6.56667 8.15 4.50001H2.05V1.50001H13.5V12.95H10.5V6.50001C8.36667 8.20001 6.66667 10.225 5.4 12.575C4.13333 14.925 3.5 17.4 3.5 20C3.5 24.4 4.83333 28.1583 7.5 31.275C10.1667 34.3917 13.5 36.25 17.5 36.85V39.9ZM17.15 28.5L9.4 20.75L11.5 18.65L17.15 24.3L28.5 12.95L30.6 15.05L17.15 28.5ZM26.5 38.5V27.05H29.5V33.5C31.6333 31.7667 33.3333 29.7333 34.6 27.4C35.8667 25.0667 36.5 22.6 36.5 20C36.5 15.6 35.1667 11.8417 32.5 8.72501C29.8333 5.60834 26.5 3.75001 22.5 3.15001V0.100006C27.3667 0.700006 31.4167 2.85001 34.65 6.55001C37.8833 10.25 39.5 14.7333 39.5 20C39.5 22.9333 38.8083 25.7333 37.425 28.4C36.0417 31.0667 34.1833 33.4333 31.85 35.5H37.95V38.5H26.5Z" fill="white"/>
</svg>
